<?xml version="1.0" standalone="no"?>
<!DOCTYPE svg PUBLIC "-//W3C//DTD SVG 1.1//EN" "http://www.w3.org/Graphics/SVG/1.1/DTD/svg11.dtd" >
<svg xmlns="http://www.w3.org/2000/svg">
<metadata>Generated by IcoMoon</metadata>
<defs>
<font id="ui_icons_agents" horiz-adv-x="512">
<font-face units-per-em="512" ascent="480" descent="-32" />
<missing-glyph horiz-adv-x="512" />
<glyph unicode="&#x20;" horiz-adv-x="256" d="" />
<glyph unicode="&#xe600;" glyph-name="select" d="M218.323 9.683l-201.472 203.37 51.471 41.246 116.601-90.744c47.676 56.305 153.63 168.463 299.671 257.295l12.348-28.31c-134.099-122.383-243.877-294.671-278.618-382.856z" />
<glyph unicode="&#xe601;" glyph-name="reports" d="M21.474 182.166h83.787v-196.984h-83.787v196.985zM216.998 463.541h83.803v-478.358h-83.803v478.358zM412.551 322.816h83.772v-337.634h-83.772v337.634z" />
<glyph unicode="&#xe602;" glyph-name="settings" d="M253.048 314.308c-47.767 0-86.573-40.553-86.573-88.681 0-48.008 38.806-88.199 86.573-88.199 47.721 0 89.856 40.192 89.856 88.2 0 48.113-42.12 88.681-89.856 88.681zM428.906 178.161c-4.051-14.683-9.939-28.491-17.317-41.412 0.467-0.542 39.846-49.875 15.978-73.818l-11.731-11.806c-17.8-17.875-62.223 10.135-72.734 17.167-13.478-7.575-28.024-13.553-43.294-17.514l2.997-0.12c0 0-8.388-63.594-42.285-63.594h-11.611c-25.796 0-40.177 54.452-42.661 64.798-15.225 4.262-29.59 10.526-42.873 18.462l2.274-2.515c0 0-50.071-39.62-74.029-15.481l-10.602 8.854c-18.236 18.341 11.34 67.192 17.061 76.243-7.108 12.514-12.83 25.916-16.776 40.192-9.969 2.364-64.527 16.881-64.527 42.963v11.701c0 30.058 51.968 40.177 64.241 42.135 3.87 14.291 9.593 27.844 16.685 40.463-5.436 8.268-36.322 57.299-17.875 75.942l11.249 9.412c21.112 21.293 64.527-8.96 74.391-16.414 12.83 7.379 26.458 13.372 40.93 17.438 3.222 12.709 17.513 63.684 42.496 63.684h11.611c29.048 0 39.379-49.303 41.773-63.413 14.622-3.961 28.551-9.863 41.457-17.243 10.812 7.108 56.064 35.042 73.758 17.243l10.572-11.339c20.766-20.721-8.101-62.961-16.293-74.12 7.274-12.906 13.176-26.805 17.228-41.457 8.327-1.295 62.043-10.887 62.043-42.331v-11.701c0-24.5-47.812-38.762-62.132-42.421z" />
<glyph unicode="&#xe603;" glyph-name="inbox" d="M230.732 177.092l-212.269 175.074c0 0-1.46 36.171 32.708 36.171h412.236c0 0 29.877-0.301 29.877-34.319l-194.966-174.878c0 0-27.798-38.174-67.584-2.048zM461.959 81.152h-410.248c0 0-34.018-1.536-34.018 34.801v217.706l106.903-90.684-70.355-142.818 89.314 126.75 67.945-57.645c0 0 20.42-29.199 51.396-28.024 0 0 25.721-3.464 51.953 30.148l65.687 60.838 82.010-115.953-61.44 135.077 92.687 85.94v-221.772c0.015-0.015-2.981-33.039-31.834-34.364z" />
<glyph unicode="&#xe605;" glyph-name="logout" d="M17.529 221.214c0-98.319 77.387-178.055 172.785-178.055 66.424 0 124.009 38.55 153.013 95.111h-68.759c-21.248-22.799-51.109-37.029-84.254-37.029-64.301 0-116.42 53.685-116.42 119.974s52.118 119.974 116.42 119.974c33.144 0 63.006-14.231 84.254-37.044h68.759c-29.003 56.561-86.588 95.126-153.012 95.126-95.397 0.015-172.785-79.707-172.785-178.055zM399.736 190.329v-79.978l96.421 111.209-96.421 111.224v-81.092h-171.219v-61.365z" />
<glyph unicode="&#xe606;" glyph-name="menu" d="M17.558 95.849h477.034v-67.885h-477.034v67.885zM17.558 254.118h477.034v-67.764h-477.034v67.764zM17.558 412.446h477.034v-67.885h-477.034v67.885z" />
<glyph unicode="&#xe607;" glyph-name="more" d="M16.354 225.235c0 28.687 23.401 51.892 52.194 51.892 28.808 0 52.089-23.206 52.089-51.892 0-28.672-23.281-51.877-52.089-51.877-28.793 0-52.194 23.205-52.194 51.877zM204.062 225.235c0 28.687 23.416 51.892 52.209 51.892s52.089-23.206 52.089-51.892c0-28.672-23.311-51.877-52.089-51.877s-52.209 23.205-52.209 51.877zM391.8 225.235c0 28.687 23.416 51.892 52.209 51.892 28.777 0 52.074-23.206 52.074-51.892 0-28.672-23.296-51.877-52.074-51.877-28.808 0-52.209 23.205-52.209 51.877z" />
<glyph unicode="&#xe608;" glyph-name="search" d="M300.635 279.010c-0.106-54.859-45.433-99.524-101.27-99.584-55.868 0.060-101.285 44.725-101.361 99.584 0.076 54.935 45.492 99.509 101.361 99.584 55.838-0.075 101.165-44.649 101.27-99.584zM480.979 58.986l-127.518 125.44c17.393 27.422 27.512 59.874 27.512 94.584 0 98.68-81.287 178.613-181.625 178.613-100.367 0-181.73-79.932-181.73-178.613 0-98.59 81.363-178.538 181.73-178.538 35.343 0 68.653 10.014 96.647 27.332l127.518-125.35c8.794-8.584 20.179-13.132 31.699-13.132h0.091c9.924 0 20.058 3.584 27.663 11.038 7.71 7.589 11.37 17.679 11.309 27.483 0.015 11.234-4.488 22.513-13.297 31.142z" />
<glyph unicode="&#xe609;" glyph-name="star" d="M256.135 454.43l56.079-176.188 182.844 0.452-148.164-108.499 56.938-175.917-147.697 109.086-147.697-109.086 56.892 175.917-148.133 108.499 182.829-0.452z" />
<glyph unicode="&#xe60a;" glyph-name="dropdown" d="M486.4 279.206l-226.244-191.97-226.259 191.97z" />
<glyph unicode="&#xe60b;" glyph-name="arrow-bullet" d="M33.852 462.969l331.746-238.171-331.746-238.171v102.084l199.048 136.087-199.048 136.101z" />
<glyph unicode="&#xe60c;" glyph-name="arrow-down" d="M493.041 330.587l-237.673-144.444-236.273 143.932 0.211-60.596 236.062-137.156 238.11 138.21z" />
<glyph unicode="&#xe60d;" glyph-name="arrow-up" d="M493.026 132.352l-237.673 144.414-236.273-143.932 0.211 60.612 236.062 137.141 238.095-138.21z" />
<glyph unicode="&#xe60e;" glyph-name="minus" d="M17.649 224.286c0-131.434 105.849-238.050 236.423-238.050 130.605 0 236.453 106.616 236.453 238.050s-105.849 238.035-236.453 238.035c-130.575 0-236.423-106.617-236.423-238.035zM381.846 258.244c11.957 0 21.73-9.788 21.73-21.836v-24.26c0-12.047-9.773-21.925-21.73-21.925h-253.651c-11.942 0-21.639 9.863-21.745 21.925l0.106 24.26c-0.106 12.047 9.698 21.836 21.639 21.836h253.651z" />
<glyph unicode="&#xe60f;" glyph-name="plus" d="M17.649 224.271c0-131.419 105.864-238.035 236.439-238.035 130.59 0 236.439 106.616 236.439 238.035 0 131.448-105.849 238.050-236.439 238.050-130.575 0-236.439-106.617-236.439-238.050zM381.832 258.334c11.987-0.090 21.654-9.879 21.654-21.925v-24.26c0-12.047-9.683-21.805-21.654-21.925l-71.394 0.12c-11.866-0.12-21.654-9.909-21.654-21.956v-71.755c0-12.092-9.758-21.82-21.715-21.82h-24.185c-11.867 0-21.625 9.728-21.625 21.82v71.755c0 12.047-9.788 21.956-21.745 21.956h-71.319c-11.942 0-21.745 9.743-21.745 21.805v24.26c0 12.047 9.788 21.836 21.745 21.925l71.304-0.090c11.941 0 21.745 9.878 21.745 21.925v71.771c0 12.032 9.758 21.835 21.625 21.835h24.185c11.942 0 21.715-9.803 21.715-21.835v-71.786c0-12.032 9.788-21.836 21.654-21.925l71.409 0.106z" />
<glyph unicode="&#xe610;" glyph-name="delete" d="M495.089 81.288l-73.472-73.020-165.165 149.444-165.226-149.444-73.442 73.020 161.536 146.101-161.536 146.071 73.442 73.035 165.226-149.428 165.165 149.428 73.472-73.035-161.551-146.071z" />
<glyph unicode="&#xe611;" glyph-name="dice" d="M432 384h-256c-44 0-80-36-80-80v-256c0-44 36-80 80-80h256c44 0 80 36 80 80v256c0 44-36 80-80 80zM208 32c-26.51 0-48 21.49-48 48s21.49 48 48 48 48-21.49 48-48-21.49-48-48-48zM208 224c-26.51 0-48 21.49-48 48s21.49 48 48 48 48-21.49 48-48-21.49-48-48-48zM304 128c-26.51 0-48 21.49-48 48s21.49 48 48 48 48-21.49 48-48-21.49-48-48-48zM400 32c-26.51 0-48 21.49-48 48s21.49 48 48 48 48-21.49 48-48-21.49-48-48-48zM400 224c-26.51 0-48 21.49-48 48s21.49 48 48 48 48-21.49 48-48-21.49-48-48-48zM414.38 416c-7.465 36.402-39.855 64-78.38 64h-256c-44 0-80-36-80-80v-256c0-38.523 27.598-70.915 64-78.38v318.38c0 17.6 14.4 32 32 32h318.38z" />
<glyph unicode="&#xe612;" glyph-name="spades" d="M408.785 305.925c-96.783 71.929-130.133 129.509-152.783 174.074v0c-0.002 0-0.002 0.001-0.002 0.001v-0.001c-22.648-44.565-56-102.146-152.783-174.074-165.018-122.643-9.688-293.834 126.879-199.612-8.898-58.465-39.265-101.086-70.104-119.441v-18.872h192.016v18.87c-30.841 18.354-61.205 60.977-70.106 119.442 136.568-94.223 291.9 76.97 126.883 199.613z" />
<glyph unicode="&#xe613;" glyph-name="clubs" d="M393.416 283.614c-29.516 0-56.043-12.298-74.926-32.347-7.998-8.492-21.881-18.556-36.9-27.405 7.055 26.934 29.338 60.85 44.814 75.728 19.82 19.085 31.992 45.915 31.992 75.75 0.003 57.447-45.738 104.048-102.394 104.66-56.66-0.611-102.398-47.213-102.398-104.659 0-29.836 12.172-56.665 31.993-75.75 15.477-14.878 37.76-48.794 44.814-75.728-15.021 8.85-28.903 18.913-36.9 27.405-18.884 20.049-45.41 32.347-74.925 32.347-57.193 0-103.54-46.832-103.54-104.664 0-57.819 46.346-104.669 103.54-104.669 29.521 0 56.041 12.678 74.925 32.726 8.402 8.936 23.222 20.069 39.146 29.316-1.501-73.846-36.766-128.084-72.659-149.453v-18.871h192.007v18.87c-35.896 21.368-71.16 75.608-72.66 149.453 15.926-9.247 30.744-20.384 39.146-29.316 18.883-20.047 45.404-32.726 74.926-32.726 57.193 0 103.539 46.85 103.539 104.669-0.001 57.832-46.346 104.664-103.54 104.664z" />
<glyph unicode="&#xe614;" glyph-name="diamonds" d="M256 480l-160-256 160-256 160 256z" />
<glyph unicode="&#xe615;" glyph-name="connection" horiz-adv-x="640" d="M320 192c52.935 0 100.935-21.533 135.701-56.299l-45.234-45.234c-23.177 23.178-55.178 37.533-90.467 37.533s-67.289-14.355-90.467-37.533l-45.234 45.234c34.766 34.766 82.766 56.299 135.701 56.299zM93.726 226.274c60.44 60.44 140.799 93.726 226.274 93.726s165.834-33.286 226.275-93.726l-45.255-45.254c-48.353 48.352-112.64 74.98-181.020 74.98-68.381 0-132.667-26.628-181.019-74.981l-45.255 45.255zM494.392 412.781c53.351-22.566 101.258-54.864 142.391-95.998v0l-45.254-45.254c-72.528 72.528-168.96 112.471-271.529 112.471-102.57 0-199-39.943-271.529-112.471l-45.255 45.255c41.134 41.133 89.041 73.431 142.392 95.997 55.252 23.369 113.926 35.219 174.392 35.219s119.139-11.85 174.392-35.219zM288 32c0 17.673 14.327 32 32 32s32-14.327 32-32c0-17.673-14.327-32-32-32s-32 14.327-32 32z" />
<glyph unicode="&#xe616;" glyph-name="tag" d="M463.906 480h-144.281c-26.453 0-63.398-15.303-82.102-34.007l-223.495-223.495c-18.704-18.704-18.704-49.312 0-68.016l172.455-172.453c18.704-18.705 49.311-18.705 68.015 0l223.495 223.494c18.704 18.705 34.007 55.651 34.007 82.102v144.281c0 26.452-21.643 48.094-48.094 48.094zM400 320c-26.51 0-48 21.49-48 48s21.49 48 48 48 48-21.49 48-48-21.49-48-48-48z" />
<glyph unicode="&#xe617;" glyph-name="dot" d="M375.854 208.254c0-66.849-54.192-121.040-121.040-121.040s-121.040 54.192-121.040 121.040c0 66.849 54.191 121.040 121.040 121.040s121.040-54.191 121.040-121.040z" />
<glyph unicode="&#xe618;" glyph-name="credit" d="M464 416h-416c-26.4 0-48-21.6-48-48v-288c0-26.4 21.6-48 48-48h416c26.4 0 48 21.6 48 48v288c0 26.4-21.6 48-48 48zM48 384h416c8.673 0 16-7.327 16-16v-48h-448v48c0 8.673 7.327 16 16 16zM464 64h-416c-8.673 0-16 7.327-16 16v144h448v-144c0-8.673-7.327-16-16-16zM64 160h32v-64h-32zM128 160h32v-64h-32zM192 160h32v-64h-32z" />
<glyph unicode="&#xe619;" glyph-name="phone" d="M352 160c-32-32-32-64-64-64s-64 32-96 64-64 64-64 96 32 32 64 64-64 128-96 128-96-96-96-96c0-64 65.75-193.75 128-256s192-128 256-128c0 0 96 64 96 96s-96 128-128 96z" />
<glyph unicode="&#xe61a;" glyph-name="clock" d="M329.372 105.372l-105.372 105.373v141.255h64v-114.745l86.628-86.627zM256 480c-141.385 0-256-114.615-256-256s114.615-256 256-256 256 114.615 256 256-114.615 256-256 256zM256 32c-106.039 0-192 85.961-192 192s85.961 192 192 192c106.039 0 192-85.961 192-192s-85.961-192-192-192z" />
<glyph unicode="&#xe61b;" glyph-name="calendar" d="M160 288h64v-64h-64zM256 288h64v-64h-64zM352 288h64v-64h-64zM64 96h64v-64h-64zM160 96h64v-64h-64zM256 96h64v-64h-64zM160 192h64v-64h-64zM256 192h64v-64h-64zM352 192h64v-64h-64zM64 192h64v-64h-64zM416 480v-32h-64v32h-224v-32h-64v32h-64v-512h480v512h-64zM448 0h-416v352h416v-352z" />
<glyph unicode="&#xe61c;" glyph-name="print" d="M128 448h256v-64h-256zM480 352h-448c-17.6 0-32-14.4-32-32v-160c0-17.6 14.398-32 32-32h96v-128h256v128h96c17.6 0 32 14.4 32 32v160c0 17.6-14.4 32-32 32zM352 32h-192v160h192v-160zM487.2 304c0-12.813-10.387-23.2-23.199-23.2s-23.201 10.387-23.201 23.2 10.388 23.2 23.201 23.2c12.813 0 23.199-10.387 23.199-23.2z" />
<glyph unicode="&#xe61d;" glyph-name="football" d="M57.892 20.608c20.997-21.337 80.435-28.509 148-12.613-13.394 36.972-34.733 71.709-63.936 101.433-28.594 29.108-61.773 50.538-97.197 64.274-16.414-68.855-9.673-129.849 13.133-153.094zM263.692 26.827c39.136 16.503 78.183 41.038 111.712 75.26 29.378 29.885 51.485 64.188 67.472 99.001-10.884 50.892-35.765 99.36-74.727 139.015-12.099 12.358-25.143 23.413-38.794 33.002-11.751-7.082-23.758-14.858-35.858-23.413 3.974-3.367 7.779-6.91 12.438-11.314-0.086-4.409-9.933-17.28-16.411-21.431-4.75 8.21-9.332 14.26-14.166 19.44-8.034-6.044-15.984-12.352-23.933-19.005 4.75-4.062 9.245-8.038 14.77-13.305-0.169-4.407-10.019-17.195-16.414-21.34-5.097 8.554-9.762 14.774-14.946 20.22-8.551-7.69-17.107-15.728-25.484-24.105 5.7-4.754 10.627-9.159 17.108-15.293-0.173-4.407-9.934-17.195-16.414-21.342-5.273 8.987-10.196 15.381-15.726 20.998-7.172-7.69-13.993-15.466-20.562-23.241 6.569-5.442 11.922-10.108 19.094-16.933-0.083-4.409-9.934-17.19-16.414-21.426-5.442 9.332-10.542 15.895-16.331 21.683-7.948-10.108-15.376-20.132-22.375-30.154 16.589-11.661 32.311-25.060 47.084-40.086 36.199-36.985 62.547-80.183 78.878-126.233zM472.339 298.374c9.332 58.752 1.644 108.341-17.019 127.434-20.046 20.393-68.173 28.341-124.937 18.836 28.947-15.723 56.158-36.026 80.61-60.909 25.319-25.833 45.796-54.688 61.346-85.362zM237.339 415.008c-34.905-16.672-69.374-39.911-99.529-70.668-33.086-33.783-57.28-72.75-73.783-111.886 17.799-6.825 35.252-15.203 51.927-25.14 7.344 10.624 15.203 21.422 23.497 32.138-5.7 3.454-11.922 6.48-19.094 10.281 3.716 5.961 7.258 12.268 15.811 13.824 6.48-3.024 11.492-5.358 16.242-8.038 6.742 8.121 13.824 16.156 21.17 24.194-5.877 3.54-12.183 6.653-19.613 10.538 3.629 5.961 7.257 12.267 15.811 13.824 7.344-3.37 12.871-5.961 18.318-9.243 8.551 8.724 17.19 17.017 25.918 24.966-6.050 3.716-12.613 6.914-20.304 11.062 3.629 5.872 7.257 12.179 15.811 13.735 8.466-3.89 14.427-6.738 20.645-10.711 8.125 6.91 16.245 13.474 24.366 19.696-6.306 3.89-13.047 7.257-21.081 11.492 3.712 5.961 7.344 12.267 15.811 13.824 9.5-4.407 15.901-7.433 22.978-12.272 11.062 7.863 22.030 15.12 32.745 21.773-21.514 12.010-44.32 20.914-67.65 26.611z" />
<glyph unicode="&#xe61e;" glyph-name="heart" d="M512 300.922c0-43.181-18.609-82.015-48.245-108.922h0.245l-160-160c-16-16-32-32-48-32s-32 16-48 32l-159.755 160c-29.636 26.907-48.245 65.741-48.245 108.922 0 81.229 65.849 147.078 147.078 147.078 43.181 0 82.015-18.609 108.922-48.245 26.907 29.636 65.741 48.245 108.922 48.245 81.228 0 147.078-65.849 147.078-147.078z" />
<glyph unicode="&#xe61f;" glyph-name="warning" d="M256 400.638l-172.417-368.638h344.834l-172.417 368.638zM256 480v0c11.035 0 22.070-7.441 30.442-22.324l218.536-435.556c16.745-29.766 2.5-54.12-31.651-54.12h-434.654c-34.152 0-48.395 24.354-31.652 54.12l218.537 435.556c8.372 14.883 19.407 22.324 30.442 22.324zM224 96c0 17.673 14.327 32 32 32s32-14.327 32-32c0-17.673-14.327-32-32-32s-32 14.327-32 32zM256 288c17.673 0 32-14.327 32-32l-10-96h-44l-10 96c0 17.673 14.327 32 32 32z" />
<glyph unicode="&#xe620;" glyph-name="question" d="M224 128h64v-64h-64zM352 352c17.673 0 32-14.327 32-32v-96l-96-64h-64v32l96 64v32h-160v64h192zM256 432c-55.559 0-107.792-21.636-147.078-60.922s-60.922-91.519-60.922-147.078c0-55.559 21.636-107.792 60.922-147.078s91.519-60.922 147.078-60.922c55.559 0 107.792 21.636 147.078 60.922s60.922 91.519 60.922 147.078c0 55.559-21.636 107.792-60.922 147.078s-91.519 60.922-147.078 60.922zM256 480v0c141.385 0 256-114.615 256-256s-114.615-256-256-256c-141.385 0-256 114.615-256 256s114.615 256 256 256z" />
<glyph unicode="&#xe621;" glyph-name="checkmark" d="M432 416l-240-240-112 112-80-80 192-192 320 320z" />
<glyph unicode="&#xe622;" glyph-name="horses" d="M390.96 246.206c7.577 11.936 12.103 11.591 23.58 0h-23.581zM35.77 277.248c36.553-13.941 121.015-45.616 137.198-46.65 1.893 0.745 2.869 0.919 2.582 0.458-0.286-0.4-1.206-0.516-2.582-0.458-21.69-8.434-163.479-88.825 23.353-155.786 0.861 4.651 1.319 9.413 1.55 14.114 0.974 21.86 9.066 38.906 25.076 53.306 23.984 21.685 49.749 40.278 79.993 52.044 2.352 0.921 4.528 2.354 6.88 3.614-10.726 19.625-3.154 36.263 6.658 52.445 1.435 2.297 4.875 3.387 7.401 5.053l2.125-2.354c-1.609-3.844-3.273-7.632-4.82-11.476-8.038-19.968-4.937-39.076 10.265-50.094 10.276-7.463 21.922-15.55 33.913-17.387 20.834-3.212 36.726-14.058 52.909-25.593 6.658-4.764 13.198-9.929 20.43-13.657 5.218-2.695 11.533-3.383 16.576-4.762l-0.685 14.866c8.202-1.267 16.7-4.764 18.873-2.354 3.966 4.359 4.19 12.215 6.14 18.587 1.031 3.212 2.467 6.26 3.733 9.408v9.415c-20.252 11.184-32.13 30.409-45.278 48.37-4.583 6.197-12.103 11.65-7.514 21.632 0.578 1.264-2.926 4.994-5.104 6.946-11.707 10.384-23.872 20.14-35.236 30.871-11.184 10.557-8.030 23.411 6.546 29.264 3.099 1.26 6.421 1.95 12.681 3.844-15.723 5.68-25.479-1.435-37.93-9.698l-10.786 48.429-17.445-45.33c-9.469 17.155-23.411 24.958-40.222 27.827-18.878 3.273-35.056 10.272-41.657 31.043l-7.577-37.642-32.708 26.742 11.65-32.823-50.439 15.666 9.698-33.854-42.517 28.35 11.018-30.7-88.254 10.445 35.518-32.994c-23.582-8.72-46.764-14.917-72.010-9.123z" />
<glyph unicode="&#xe623;" glyph-name="dices" d="M319.648 295.657c-22.231 0-40.25-17.319-40.25-38.662v-14.882c-1.874 3.511-4.35 6.834-7.394 9.781l-85.838 82.422c-15.773 15.166-41.373 15.166-57.195 0l-85.792-82.421c-15.773-15.162-15.773-39.783 0-54.944l85.792-82.428c15.821-15.159 41.422-15.159 57.195 0l85.838 82.428c3.043 2.942 5.52 6.221 7.394 9.781v-65.763c0-21.341 18.019-38.658 40.25-38.658h120.757c22.233 0 40.25 17.317 40.25 38.658v116.026c0 21.342-18.018 38.661-40.25 38.661h-120.757zM323.954 157.866c0 9.831 8.332 17.785 18.538 17.785 10.249 0 18.579-7.954 18.579-17.785s-8.332-17.829-18.579-17.829c-10.208 0-18.538 7.998-18.538 17.829zM366.359 198.542c0 9.826 8.283 17.829 18.535 17.829 10.206 0 18.535-8.003 18.535-17.829 0-9.831-8.329-17.79-18.535-17.79-10.252 0-18.535 7.957-18.535 17.79zM408.716 239.257c0 9.829 8.286 17.786 18.534 17.786 10.249 0 18.535-7.958 18.535-17.786 0-9.826-8.286-17.829-18.535-17.829-10.247 0-18.534 8.004-18.534 17.829zM90.169 213.89c-7.254 6.974-7.254 18.3 0 25.274 7.257 7.020 19.050 7.020 26.352 0 7.254-6.974 7.254-18.3 0-25.274-7.299-6.974-19.095-6.974-26.352 0zM150.361 156.043c-7.257 6.974-7.257 18.3 0 25.321 7.302 6.971 19.094 6.971 26.35 0 7.302-7.021 7.302-18.346 0-25.321-7.257-6.974-19.049-6.974-26.35 0zM150.361 213.89c-7.257 6.974-7.257 18.3 0 25.274 7.302 7.020 19.094 7.020 26.35 0 7.302-6.974 7.302-18.3 0-25.274-7.257-6.974-19.049-6.974-26.35 0zM150.361 271.74c-7.257 6.972-7.257 18.298 0 25.273 7.302 7.020 19.094 7.020 26.35 0 7.302-6.974 7.302-18.301 0-25.273-7.257-7.020-19.049-7.020-26.35 0zM210.595 213.89c-7.299 6.974-7.299 18.3 0 25.274 7.257 7.020 19.050 7.020 26.352 0 7.254-6.974 7.254-18.3 0-25.274-7.302-6.974-19.095-6.974-26.352 0z" />
<glyph unicode="&#xe624;" glyph-name="ticket" d="M275.778 60.128l123.6-34.853 82.397 304.979-173.43 44.018 10.043-37.139 128.658-33.022-14.265-52.686-98.166 25.677 51.109-189.113-109.947-27.86zM26.665 343.801l82.471-298.226 240.763 60.999-82.469 305.006-240.764-67.779zM60.384 318.304l188.489 52.528 14.406-53.142-188.489-51.596-14.406 52.21z" />
<glyph unicode="&#xe900;" glyph-name="ag-circle-graph" d="M35.014 226.394c0-122.204 98.811-221.298 220.688-221.298 53.399 0 102.338 19.015 140.491 50.603l-160.357 161.289v229.811c-112.596-10.057-200.821-104.892-200.821-220.405zM424.697 84.038c32.274 38.48 51.738 88.147 51.738 142.357 0 54.451-19.625 104.282-52.144 142.843l-140.691-143.735 141.097-141.465zM395.748 397.456c-33.291 27.449-74.768 45.289-120.178 49.344v-173.008l120.178 123.664z" />
<glyph unicode="&#xe901;" glyph-name="ag-dist" d="M215.238 284.043c14.558-12.093 28.087-25.168 40.402-39.101 10.967 12.404 22.83 24.091 35.548 35.010v94.151h40.4l-79.182 79.367-79.188-79.365h42.022v-90.062zM461.065 276.041l-103.591 39.726 15.589-34.862-1.385-0.636c-95.319-47.504-154.866-145.431-154.823-251.043v-34.29h77.568v34.019l0.045 0.046c0.404 75.228 42.606 144.98 109.837 179.81l0.796 0.45 16.236-36.31 39.728 103.090zM139.781 280.269l-1.398 0.642 15.596 34.857-103.59-39.726 39.683-103.091 16.245 36.304 0.787-0.445c34.427-17.84 62.288-44.805 81.342-76.983 10.023 27.815 23.55 54.108 40.179 78.421-24.090 28.674-54.11 52.672-88.848 70.022z" />
<glyph unicode="&#xe902;" glyph-name="perf-lown" d="M28.274 425.334l28.135 27.822 146.807-146.912 87.435 86.426 150.429-150.88 45.267 45.299-0.836-117.623-117.555-0.837 45.267 45.303-122.885 122.813-87.296-86.318z" />
<glyph unicode="&#xe903;" glyph-name="perf-up" d="M28.256 197.136l28.061-27.748 146.414 146.521 87.202-86.197 150.029 150.442 45.147-45.18-0.836 117.314-117.241 0.867 45.149-45.216-122.558-122.453-87.065 86.057z" />
<glyph unicode="&#xe904;" glyph-name="trending" d="M315.408 384.501l-0.038-39.808 95.209 0.295-117.824-117.856-68.69 69.606-98.233-99.598 28.197-28.236 70.036 70.774 68.637-69.337 28.233 28.235-0.108 0.112 117.842 118.138-0.26-95.319 39.737 0.036 0.553 163.511zM33.459 432.050v-398.793c0-7.854 6.377-14.229 14.227-14.229h398.318v39.885h-365.584c-3.945 0-7.114 3.171-7.114 7.113v366.025h-39.847z" />
<glyph unicode="&#xe905;" glyph-name="whistle" d="M236.016 447.289l-0.626 0.149 1.074-0.681-0.448 0.531zM240.258 444.814c-1.238 0.722-2.501 1.36-3.794 1.945l-2.202 0.938 1.129-0.258-4.691 2.964c-29.015 16.956-94.553 4.46-130.638-29.668l-2.256-2.148-20.082 11.218c-16.861 9.408-38.112 4.813-47.373-10.375-9.273-15.214-2.869-35.094 14.195-44.325l12.768-6.892c-19.294-30.77-29.518-60.791-24.502-75.449 7.968-23.317 21.892-74.754 48.011-89.575 25.779-14.644 36.684-18.478 67.264-28.962 31.517-10.795 90.743 24.474 102.084 29.314 11.274 4.8 28.324 16.685 49.507 8.050l75.692-40.411c16.482-8.794 38.345-3.399 48.95 11.94l57.054 82.548c10.402 15.036 6.062 34.658-9.776 43.918l-231.34 135.228zM412.666 226.163l-166.019 91.9c0 0-23.346 13.596-49.356 27.819-8.254 4.514-16.764 9.070-24.896 13.298l-57.691 31.94c5.725 8.755 20.64 22.746 44.162 38.683 42.204 28.608 107.2-18.274 107.2-18.274l195.847-113.59c7.356-4.256 9.491-13.284 4.774-20.166l-31.829-46.526c-4.761-6.947-14.685-9.246-22.19-5.084zM246.647 318.064l-46.162 25.563c-1.182 0.653-2.244 1.428-3.195 2.258 26.011-14.224 49.357-27.821 49.357-27.821zM69.454 416.166c8.403-4.651 11.502-14.509 6.948-22.026-4.555-7.533-15.079-9.925-23.536-5.315-8.498 4.622-11.666 14.535-7.056 22.123 4.608 7.558 15.2 9.882 23.645 5.219zM277.635 381.33l-32.81-38.791c-4.894-5.792-4.174-13.12 1.632-16.343l2.761-1.536c5.778-3.209 14.386-1.114 19.255 4.663l32.482 38.63c4.798 5.71 4.119 12.971-1.536 16.249l-2.72 1.565c-5.671 3.287-14.221 1.303-19.063-4.435z" />
<glyph unicode="&#xe906;" glyph-name="exit" d="M45.975 431.97c-7.726 0-14.005-6.278-14.005-14.043v-385.861c0-7.765 6.279-14.043 14.005-14.043h238.643v39.303h-206.322c-3.9 0-7.022 3.158-7.022 7.021v321.298c0 3.902 3.122 7.022 7.022 7.022h206.324v39.303h-238.645zM363.225 342.144l-27.785-27.786 66.868-66.199h-203.317v-39.303h203.317l-66.868-66.197 27.785-27.788 115.124 113.637z" />
<glyph unicode="&#xe907;" glyph-name="payment" d="M466.45 391.127h-421.308c-7.319 0-13.261-5.91-13.261-13.228v-304.329c0-7.289 5.941-13.228 13.261-13.228h421.308c7.317 0 13.26 5.942 13.26 13.228v304.329c0 7.319-5.943 13.228-13.26 13.228zM435.99 97.399h-360.389c-3.642 0-6.63 2.954-6.63 6.63v103.195h90.098v37.056h-90.098v103.193c0 3.644 2.989 6.63 6.629 6.63h360.391c3.644 0 6.631-2.986 6.631-6.63v-103.193h-87.474v-37.056h87.474v-103.195c0-3.675-2.988-6.63-6.633-6.63zM210.762 152.542c8.37-4.007 17.298-6.139 26.29-7.518 7.124-1.149 7.319-1.479 7.418-8.764 0-3.413 0.098-6.695 0.098-10.077 0-4.236 2.133-6.663 6.368-6.764 4.988-0.098 9.881-0.098 14.835 0 4.038 0.101 6.173 2.334 6.173 6.336 0 4.562 0.195 9.125 0 13.785-0.231 4.63 1.806 6.958 6.236 8.24 10.272 2.853 19.102 8.372 25.865 16.51 18.775 22.779 11.552 56.125-15.033 70.829-8.404 4.663-17.166 8.141-25.997 11.751-5.088 2.101-9.943 4.53-14.178 8.042-8.501 6.761-6.893 17.659 3.050 22.023 2.757 1.149 5.744 1.575 8.796 1.772 11.454 0.656 22.386-1.478 32.853-6.434 5.221-2.56 6.894-1.707 8.699 3.709 1.808 5.71 3.413 11.422 5.088 17.232 1.18 3.808-0.195 6.467-3.906 8.042-6.695 2.985-13.589 5.086-20.678 6.137-9.421 1.51-9.421 1.51-9.421 10.93-0.132 13.326-0.132 13.326-13.36 13.326h-5.842c-6.237-0.197-7.319-1.28-7.418-7.516-0.098-2.855 0-5.613 0-8.468 0-8.37-0.098-8.272-8.041-11.125-19.302-6.992-31.28-20.087-32.56-41.159-1.149-18.643 8.599-31.246 23.863-40.338 9.418-5.613 19.923-8.995 29.902-13.326 3.904-1.707 7.613-3.709 10.896-6.366 9.65-7.945 7.846-21.173-3.609-26.128-6.139-2.656-12.506-3.282-19.17-2.558-10.176 1.278-20.022 3.938-29.244 8.795-5.417 2.857-7.024 2.135-8.797-3.806-1.609-5.086-2.987-10.178-4.366-15.228-2.002-6.994-1.378-8.702 5.186-11.882z" />
<glyph unicode="&#xe908;" glyph-name="nfl-helmet" d="M145.433 412.88c-103.716-45.696-135.109-164.366-94.98-268.96 2.67-6.791 10.373-10.185 17.049-7.248l30.174 13.353c15.029 6.599 32.233 1.753 42.608-10.95 28.455-34.672 77.664-47.68 120.806-28.685 16.707 7.363 28.418 15.257 36.582 23.498 56.567-98.871 177.029-78.467 177.029-78.467l-0.306 0.345h0.841v109.781l-161.086 0.038c3.358 19.952-2.707 40.663-2.404 60.078 0.038 2.060 0.153 4.046 0.343 6.067 3.166 32.69 30.327 58.057 63.015 62.444l60.002 7.933c5.57 0.764 8.583 6.754 6.029 11.75-52.144 100.206-191.451 144.989-295.702 99.022zM265.591 200.832c0-25.594-20.409-46.421-45.584-46.421-25.214 0-45.621 20.827-45.621 46.421 0 25.671 20.407 46.423 45.621 46.423 25.175 0 45.584-20.752 45.584-46.423zM320.557 142.509h133.698v-66.26c-32.194-1.714-100.016 5.267-133.698 66.26z" />
<glyph unicode="&#xe909;" glyph-name="cust-maint" d="M371.027 80.332h107.397c0.108 1.668 0.142 28.558 0.142 30.26 0 63.355-63.070 114.697-140.88 114.697-10.029 0-19.772-0.85-29.198-2.445 38.233-25.050 62.681-63.426 62.681-106.476 0-1.984-0.034-34.051-0.142-36.036zM278.3 327.406c0 41.069 26.574 74.373 59.387 74.373 32.81 0 59.385-33.306 59.385-74.373s-26.574-74.374-59.385-74.374c-32.813 0-59.387 33.305-59.387 74.374zM35.054 110.592c0-1.702 0.035-28.594 0.142-30.26h281.514c0.070 1.668 0.139 28.558 0.139 30.26 0 63.355-63.106 114.697-140.916 114.697s-140.88-51.342-140.88-114.697zM116.551 327.406c0 41.069 26.61 74.373 59.385 74.373 32.813 0 59.386-33.306 59.386-74.373s-26.574-74.374-59.387-74.374c-32.777 0-59.385 33.305-59.385 74.374z" />
<glyph unicode="&#xe90a;" glyph-name="dashboard" d="M33.806 164.167c0-19.349 2.462-38.153 7.102-56.048h64.64c-6.269 17.282-9.712 35.943-9.712 55.394 0 89.716 72.902 162.435 162.793 162.435 2.864 0 5.689-0.075 8.515-0.221l42.502 56.125c-16.594 3.879-33.877 5.943-51.668 5.943-123.81 0.002-224.173-100.112-224.173-223.628zM397.367 248.553c15.291-24.747 24.094-53.842 24.094-85.040 0-19.45-3.442-38.112-9.746-55.394h63.335c4.638 17.895 7.138 36.7 7.138 56.048 0 57.214-21.555 109.424-56.992 148.99l-27.829-64.605zM371.785 382.905c3.37 4.494 10.075 5.833 15.001 2.935l2.212-1.269c4.89-2.898 7.067-9.383 4.851-14.566l-100.651-234.716c-10.726-25.034-38.626-34.384-62.286-20.761-23.732 13.622-29.602 42.426-13.117 64.242l153.989 204.135z" />
<glyph unicode="&#xe90b;" glyph-name="openbets" d="M120.389 92.286c76.313-78.727 200.134-82.359 277.111-8.073 39.849 38.454 59.43 90.33 58.627 142.487h-64.151c0.526-35.099-12.622-69.95-39.399-95.852-51.877-50.197-135.495-47.753-186.917 5.454-51.563 53.31-51.529 137.593 0.35 188.247 25.869 25.274 59.707 37.404 93.546 36.565v64.918c-50.269 1.259-100.538-16.745-138.958-54.359-76.873-75.301-76.768-200.378-0.21-279.386z" />
<glyph unicode="&#xe90c;" glyph-name="lb" d="M396.236 141.027c22.192 21.354 35.837 50.454 35.837 82.502 0 33.824-15.219 64.366-39.591 85.956l23.702 21.756c30.306-27.22 49.113-65.404 49.113-107.71 0-40.596-17.332-77.406-45.492-104.359l-23.568 21.856zM349.102 184.707c10.224 10.158 16.493 23.803 16.493 38.822 0 16.896-7.911 32.084-20.483 42.475l23.702 21.758c18.473-16.025 30.003-38.889 30.003-64.231 0-23.534-9.955-44.923-26.147-60.679l-23.566 21.856zM59.657 103.111h95.006v28.764h-59.438v205.902h-35.568zM247.525 307.172c13.374 0 19.209-8.716 19.209-28.53v-15.454c0-22.158-8.583-29.302-22.663-29.302h-14.75v73.285h18.204zM244.606 205.123c15.589 0 22.126-6.807 22.126-28.964v-20.786c0-17.7-6.235-23.498-17.769-23.498h-19.642v73.25h15.286zM248.528 335.934h-54.777v-232.823h57.193c32.919 0 51.358 16.695 51.358 51.259v19.41c0 25.211-7.442 41.435-26.519 48.039 19.41 6.605 26.519 22.762 26.519 51.291v9.89c0 37.682-15.858 52.935-53.774 52.935z" />
<glyph unicode="&#xe90d;" glyph-name="ag_bj" d="M349.399 97.79c56.222 0.025 101.783 44.327 101.783 98.998 0 146.526-202.61 258.795-203.568 259.325 0 0-203.555-112.774-203.543-259.337-0.025-54.658 45.55-98.971 101.773-98.971 41.715 0 77.552 24.409 93.269 59.326-31.408-142.238-139.186-165.097-139.186-165.097l295.389 0.012c0 0-107.778 22.844-139.198 165.109 15.716-34.933 51.566-59.353 93.282-59.365zM248.27 189.659h-111.725v16.853l20.726 17.319c35.042 33.276 52.073 52.4 52.576 72.304 0 13.89-7.91 24.926-26.414 24.926-13.826 0-25.91-7.367-34.298-14.18l-10.62 24.496c12.098 6.951 30.853 12.578 52.576 12.578 35.319 0 54.217-16.134 54.217-44.414 0-28.558-18.43-51.353-40.644-73.351l-14.809-13.108v-0.517h58.416v-22.906zM307.015 188.195v124.567h-0.493l-30.601-14.267-6.169 27.575 42.334 19.363h30.4v-157.238h-35.472z" />
<glyph unicode="&#xe90e;" glyph-name="ag_horses" d="M308.087 232.308c9.826 23.993 28.875 24.56 45.902 0h-45.902zM42.115 370.409v-301.833c38.233 33.163 66.793 63.827 114.688 82.080 3.911 1.488 7.494 3.783 11.429 5.803-15.477 36.331 1.778 55.252 18.014 81.362 2.345 3.785 13.863 10.394 17.774 9.373l3.518-3.859c-2.661-6.194-5.411-12.363-7.971-18.594-13.334-32.293-8.224-63.149 17.005-81.022 16.965-12.034 36.265-25.139 56.019-28.118 34.462-5.184 60.762-22.666 87.531-41.337 11.036-7.707 21.81-16.058 33.755-22.101 8.716-4.414 19.149-5.524 27.41-7.731l-1.084 24.030c13.534-2.005 27.6-7.657 31.182-3.822 6.61 7.102 6.912 19.817 10.204 30.098 1.654 5.197 4.075 10.154 6.144 15.225v15.25c-33.504 18.101-53.158 49.184-74.878 78.195-7.568 10.078-20.045 18.846-12.425 35.005 0.971 2.042-4.844 8.073-8.452 11.214-19.312 16.79-39.495 32.633-58.252 49.977-18.48 17.068-13.284 37.893 10.836 47.33 5.134 2.018 10.608 3.179 20.926 6.206-25.949 9.171-42.106-2.295-62.743-15.693l-17.837 78.386-28.861-73.339c-15.655 27.702-38.663 40.315-66.516 45.020-31.232 5.286-57.938 16.551-68.873 50.18l-12.526-60.851-46.018 36.823v-15.881l11.165-30.803-11.165 3.43z" />
<glyph unicode="&#xe90f;" glyph-name="ag_sports" d="M89.293 36.862c18.014-19.111 69.14-25.481 127.216-11.291-11.543 33.074-29.858 64.132-54.947 90.746-24.572 26.060-53.156 45.223-83.594 57.507-14.115-61.58-8.275-116.174 11.326-136.964zM266.208 42.452c33.668 14.772 67.234 36.733 96.034 67.284 25.228 26.768 44.276 57.383 58 88.565-9.373 45.486-30.779 88.843-64.221 124.313-10.445 11.088-21.622 20.916-33.353 29.504-10.105-6.308-20.421-13.27-30.853-20.914 3.394-3.027 6.711-6.181 10.709-10.13-0.101-3.973-8.565-15.413-14.115-19.136-4.125 7.315-7.998 12.702-12.222 17.381-6.837-5.399-13.687-11.074-20.51-17.029 4.087-3.595 7.895-7.152 12.652-11.856-0.089-3.974-8.553-15.415-14.103-19.136-4.339 7.682-8.387 13.244-12.866 18.089-7.355-6.862-14.645-14.064-21.849-21.582 4.882-4.226 9.132-8.137 14.658-13.61-0.101-3.974-8.566-15.413-14.115-19.136-4.528 8.048-8.766 13.762-13.484 18.77-6.144-6.875-12.046-13.814-17.71-20.775 5.651-4.832 10.256-9.006 16.423-15.125-0.089-3.974-8.566-15.413-14.103-19.136-4.704 8.35-9.081 14.178-14.026 19.325-6.813-8.981-13.221-17.975-19.225-26.944 14.217-10.432 27.751-22.389 40.416-35.824 31.182-33.062 53.801-71.737 67.865-112.896zM445.594 285.276c7.984 52.589 1.411 96.94-14.658 113.995-17.219 18.265-58.592 25.303-107.385 16.839 24.889-14.039 48.276-32.205 69.264-54.468 21.76-23.072 39.358-48.88 52.779-76.366zM243.514 389.594c-30.009-14.898-59.577-35.685-85.525-63.196-28.457-30.199-49.271-65.065-63.462-100.082 15.338-6.068 30.299-13.559 44.694-22.491 6.281 9.561 13.005 19.173 20.208 28.774-4.944 3.053-10.256 5.778-16.423 9.209 3.129 5.31 6.244 10.935 13.559 12.361 5.55-2.701 9.865-4.793 13.977-7.214 5.803 7.264 11.882 14.482 18.215 21.632-5.058 3.166-10.508 5.954-16.878 9.486 3.142 5.31 6.244 10.937 13.573 12.363 6.333-3.077 11.088-5.373 15.73-8.262 7.355 7.758 14.822 15.188 22.339 22.275-5.234 3.319-10.861 6.194-17.47 9.865 3.129 5.31 6.244 10.937 13.561 12.363 7.254-3.531 12.438-6.030 17.76-9.574 6.976 6.144 13.989 12.009 20.978 17.572-5.411 3.506-11.226 6.457-18.114 10.281 3.129 5.31 6.244 10.937 13.573 12.361 8.149-3.961 13.687-6.635 19.753-10.95 9.498 7.026 18.923 13.511 28.169 19.438-18.546 10.747-38.135 18.681-58.217 23.788z" />
<glyph unicode="&#xe910;" glyph-name="ag_casino" d="M137.922 400.608c-42.926 0-77.73-33.238-77.73-74.247v-222.755c0-41.010 34.803-74.26 77.73-74.26h233.162c42.926 0 77.716 33.252 77.716 74.26v222.755c0 41.010-34.791 74.247-77.716 74.247h-233.162zM146.27 135.998c0 18.896 16.022 34.197 35.786 34.197s35.799-15.3 35.799-34.197c0-18.884-16.032-34.185-35.799-34.185s-35.786 15.301-35.786 34.185zM228.075 214.169c0 18.886 16.034 34.185 35.801 34.185 19.765 0 35.785-15.299 35.785-34.185 0-18.896-16.019-34.197-35.785-34.197-19.767 0-35.801 15.301-35.801 34.197zM309.892 292.327c0 18.885 16.032 34.185 35.799 34.185 19.765 0 35.786-15.3 35.786-34.185 0-18.884-16.022-34.197-35.786-34.197-19.767 0-35.799 15.314-35.799 34.197z" />
<glyph unicode="&#xe911;" glyph-name="ag_livebetting" d="M78.722 46.21h138.708v40.946h-86.762v293.18h-51.945zM352.969 336.754c19.527 0 28.053-12.413 28.053-40.605v-22c0-31.573-12.524-41.728-33.062-41.728h-21.545v104.332h26.553zM348.718 191.488c22.743 0 32.304-9.714 32.304-41.26v-29.593c0-25.243-9.108-33.479-25.934-33.479h-28.672v104.332h22.302zM354.469 377.702h-79.988v-331.49h83.493c48.060 0 74.979 23.753 74.979 72.962v27.664c0 35.913-10.861 58.983-38.713 68.394 28.32 9.422 38.713 32.419 38.713 73.024v14.103c0.002 53.644-23.134 75.342-78.486 75.342z" />
<glyph unicode="&#xe912;" glyph-name="ag_livedealer" d="M205.433 110.846c-34.108-3.28-66.892-5.55-99.842-4.137-3.721 0.163-5.55 1.552-7.088 4.755-14.861 30.957-20.322 63.803-19.212 97.71 1.451 43.948 12.234 85.613 34.222 124.062 19.426 33.981 45.674 61.050 82.698 76.416 21.558 8.942 43.81 9.952 66.414 4.149 2.397-0.618 5.223-1.198 7.481-0.542 21.293 6.169 40.857 1.829 59.072-9.574 36.519-22.844 62.252-54.734 79.029-93.838 17.962-41.879 25.555-85.513 21.47-130.912-2.132-23.575-7.833-46.306-18.43-67.702-1.273-2.585-2.483-4.3-5.978-4.402-32.962-0.971-65.808 0.493-98.579 4-0.317 0.038-0.606 0.391-1.173 0.782 0.354 0.617 0.618 1.325 1.084 1.853 29.933 34.502 42.032 75.219 42.699 119.899 0.064 4.679 1.401 10.407-0.807 13.762-1.918 2.926-7.998 3.166-12.222 4.63-28.343 9.788-47.127 28.746-55.97 57.206-0.327 1.034-0.781 2.032-1.639 4.25-9.308-25.632-26.691-43.469-47.481-58.366-20.864-14.935-43.721-25.317-70.501-27.89 1.852-43.328 14.882-82.194 44.754-116.112zM185.299 58.786c0 26.187 16.272 35.737 36.366 21.344l24.572-17.623v-29.127l-24.572-17.634c-20.094-14.393-36.366-4.832-36.366 21.356v21.683zM324.611 58.786c0 26.187-16.284 35.737-36.368 21.344l-24.585-17.623v-29.127l24.585-17.634c20.082-14.393 36.368-4.832 36.368 21.356v21.683z" />
<glyph unicode="&#xe913;" glyph-name="ag_usr_activ" d="M148.278 126.258c0-1.223 0.029-20.466 0.087-21.661h200.714c0.058 1.195 0.087 20.439 0.087 21.661 0 45.332-44.981 82.075-100.445 82.075s-100.445-36.743-100.445-82.075zM206.389 281.38c0 29.404 18.954 53.221 42.333 53.221s42.333-23.815 42.333-53.221c0-29.378-18.954-53.223-42.333-53.223s-42.333 23.846-42.333 53.223zM68.621 398.827c-6.492 0-11.762-5.241-11.762-11.734v-269.947c0-6.464 5.27-11.735 11.762-11.735h373.709c6.493 0 11.762 5.269 11.762 11.735v269.947c0 6.493-5.269 11.733-11.762 11.733h-373.709zM268.402 138.283h-172.764c-3.23 0-5.881 2.622-5.881 5.881v215.942c0 3.232 2.65 5.881 5.881 5.881h319.675c3.23 0 5.881-2.649 5.881-5.881v-215.942c0-3.259-2.651-5.881-5.881-5.881h-146.91zM55.111 54.793v-14.557c0-4.834 3.901-8.734 8.734-8.734h384.309c4.834 0 8.734 3.901 8.734 8.734v14.557c0 4.834-3.901 8.734-8.734 8.734h-384.31c-4.834 0-8.734-3.901-8.734-8.734z" />
<glyph unicode="&#xe914;" glyph-name="ag_liveticker" d="M327.45 59.257c43.397 41.758 70.075 98.656 70.075 161.325 0 66.142-29.762 125.796-77.417 168.078l46.346 42.542c59.259-53.226 96.034-127.892 96.034-210.62 0-79.383-33.89-151.36-88.953-204.064l-46.086 42.74zM235.286 144.668c19.994 19.865 32.25 46.544 32.25 75.911 0 33.038-15.47 62.736-40.052 83.054l46.347 42.546c36.118-31.335 58.666-76.041 58.666-125.6 0-46.018-19.466-87.84-51.129-118.651l-46.084 42.74zM49.51 221.106c0 36.185 29.367 65.552 65.552 65.552s65.554-29.367 65.554-65.552-29.367-65.554-65.554-65.554c-36.185 0-65.552 29.369-65.552 65.554z" />
<glyph unicode="&#xe915;" glyph-name="not_allowed" d="M31.608 224c0-123.914 100.48-224.393 224.392-224.393 123.914 0 224.393 100.478 224.393 224.393 0 123.913-100.478 224.393-224.393 224.393-123.912 0-224.393-100.48-224.393-224.393zM107.067 224c0 13.225 1.748 26.053 4.965 38.246l248.539-144.287c-26.885-26.527-63.824-42.892-104.57-42.892-82.251-0.002-148.934 66.681-148.934 148.933zM151.231 329.842c26.887 26.65 63.902 43.092 104.769 43.092 82.251 0 148.933-66.683 148.933-148.934 0-13.264-1.747-26.095-5.003-38.327l-248.7 144.169z" />
<glyph unicode="&#xe916;" glyph-name="user_allowed" d="M89.277 77.697c0-2.966 0-49.262 0.194-52.227l2.183-0.193 226.893 200.185c-20.971 6.732-44.704 10.287-71.014 10.287-131.151 0-158.255-49.058-158.255-158.052zM168.404 361.762c0 43.716 26.505 79.127 59.345 79.127s59.347-35.411 59.347-79.127c0-43.718-26.505-79.128-59.346-79.128s-59.345 35.411-59.345 79.128zM316.526 14.222l-83.088 78.336 21.162 15.822 48.074-35.005c19.589 21.753 63.306 64.88 123.443 99.103l5.139-10.875c-55.192-47.090-100.493-113.351-114.731-147.381z" />
<glyph unicode="&#xe99a;" glyph-name="pie-chart" d="M224 192v224c-123.712 0-224-100.288-224-224s100.288-224 224-224 224 100.288 224 224c0 36.017-8.514 70.042-23.618 100.191l-200.382-100.191zM456.382 356.191c-36.776 73.408-112.687 123.809-200.382 123.809v-224l200.382 100.191z" />
<glyph unicode="&#xe99b;" glyph-name="stats-dots" d="M64 32h448v-64h-512v512h64zM144 64c-26.51 0-48 21.49-48 48s21.49 48 48 48c1.414 0 2.811-0.074 4.194-0.193l51.596 85.993c-4.92 7.535-7.79 16.531-7.79 26.201 0 26.51 21.49 48 48 48s48-21.49 48-48c0-9.671-2.87-18.666-7.79-26.201l51.596-85.993c1.383 0.119 2.78 0.193 4.194 0.193 1.068 0 2.124-0.047 3.175-0.115l85.178 149.061c-5.268 7.704-8.353 17.018-8.353 27.055 0 26.51 21.49 48 48 48s48-21.49 48-48c0-26.51-21.49-48-48-48-1.070 0-2.124 0.047-3.175 0.116l-85.178-149.062c5.268-7.703 8.353-17.018 8.353-27.055 0-26.51-21.49-48-48-48s-48 21.49-48 48c0 9.67 2.87 18.666 7.789 26.201l-51.595 85.992c-1.383-0.119-2.78-0.193-4.194-0.193s-2.811 0.073-4.194 0.193l-51.596-85.993c4.92-7.534 7.79-16.53 7.79-26.2 0-26.51-21.49-48-48-48z" />
<glyph unicode="&#xea0a;" glyph-name="plus2" d="M496 288h-176v176c0 8.836-7.164 16-16 16h-96c-8.836 0-16-7.164-16-16v-176h-176c-8.836 0-16-7.164-16-16v-96c0-8.836 7.164-16 16-16h176v-176c0-8.836 7.164-16 16-16h96c8.836 0 16 7.164 16 16v176h176c8.836 0 16 7.164 16 16v96c0 8.836-7.164 16-16 16z" />
<glyph unicode="&#xea0b;" glyph-name="minus2" d="M0 272v-96c0-8.836 7.164-16 16-16h480c8.836 0 16 7.164 16 16v96c0 8.836-7.164 16-16 16h-480c-8.836 0-16-7.164-16-16z" />
</font>
</defs>
</svg>
